<?xml version="1.0" encoding="utf-8"?>
<!-- Generator: Adobe Illustrator 24.0.1, SVG Export Plug-In . SVG Version: 6.00 Build 0)  -->
<svg version="1.1" id="e4e579b4-5122-4d29-876c-085905a2d49a"
	 xmlns="http://www.w3.org/2000/svg" xmlns:xlink="http://www.w3.org/1999/xlink" x="0px" y="0px" viewBox="0 0 655 413.7"
	 style="enable-background:new 0 0 655 413.7;" xml:space="preserve">
<style type="text/css">
	.st0{fill:#E6E6E6;}
	.st1{fill:#F2F2F2;}
	.st2{fill:#CCCCCC;}
	.st3{fill:#3F3D56;}
	.st4{fill:#8C692A;}
	.st5{fill:#FFB8B8;}
	.st6{fill:#2F2E41;}
	.st7{fill:#219AAF;}
	.st8{fill:#FFFFFF;}
	.st9{fill:#FF6584;}
</style>
<path class="st0" d="M416.6,129.4c1.2-13.3,4.6-26.3,10.1-38.5c1.5-3.4,3.2-6.7,5-10c0.2-0.4,0.1-0.8-0.3-1c-0.3-0.2-0.8-0.1-1,0.3
	c-6.6,11.8-11.3,24.7-13.8,38c-0.7,3.7-1.2,7.5-1.6,11.2C415,130.4,416.5,130.4,416.6,129.4z"/>
<circle class="st0" cx="435.3" cy="73.9" r="9.4"/>
<path class="st0" d="M417.5,129.7c0.8-8.6,3-17.1,6.6-25c1-2.2,2.1-4.4,3.3-6.5c0.1-0.2,0-0.5-0.2-0.7c-0.2-0.1-0.5,0-0.6,0.2
	c-4.3,7.7-7.3,16-8.9,24.6c-0.4,2.4-0.8,4.8-1,7.3C416.5,130.3,417.5,130.3,417.5,129.7z"/>
<circle class="st0" cx="429.7" cy="93.7" r="6.1"/>
<path class="st0" d="M416.3,129.1c-4.7-7.3-8.1-15.3-10.2-23.7c-0.6-2.3-1-4.7-1.4-7.1c0-0.3-0.3-0.4-0.6-0.4
	c-0.3,0-0.4,0.3-0.4,0.5c1.3,8.7,4.1,17.1,8.1,24.9c1.1,2.2,2.4,4.3,3.7,6.4C415.9,130.2,416.6,129.6,416.3,129.1L416.3,129.1z"/>
<circle class="st0" cx="403.7" cy="93.2" r="6.1"/>
<path class="st1" d="M397.6,134.5v-12c0-2.5,2-4.5,4.5-4.5h28c2.5,0,4.5,2,4.5,4.5v12c0,2.5-2,4.5-4.5,4.5h-28
	C399.6,139,397.6,137,397.6,134.5z"/>
<path class="st1" d="M429.1,58h-12c-2.5,0-4.5-2-4.5-4.5v-49c0-2.5,2-4.5,4.5-4.5h12c2.5,0,4.5,2,4.5,4.5v49
	C433.6,56,431.5,58,429.1,58z"/>
<rect x="413.1" y="9.5" class="st2" width="20" height="4"/>
<rect x="413.1" y="40.5" class="st2" width="20" height="4"/>
<path class="st1" d="M459.1,58h-12c-2.5,0-4.5-2-4.5-4.5v-49c0-2.5,2-4.5,4.5-4.5h12c2.5,0,4.5,2,4.5,4.5v49
	C463.6,56,461.5,58,459.1,58z"/>
<rect x="443.1" y="9.5" class="st2" width="20" height="4"/>
<rect x="443.1" y="40.5" class="st2" width="20" height="4"/>
<path class="st1" d="M489.1,58h-12c-2.5,0-4.5-2-4.5-4.5v-49c0-2.5,2-4.5,4.5-4.5h12c2.5,0,4.5,2,4.5,4.5v49
	C493.6,56,491.5,58,489.1,58z"/>
<rect x="473.1" y="9.5" class="st2" width="20" height="4"/>
<rect x="473.1" y="40.5" class="st2" width="20" height="4"/>
<path class="st1" d="M505.1,139h-12c-2.5,0-4.5-2-4.5-4.5v-49c0-2.5,2-4.5,4.5-4.5h12c2.5,0,4.5,2,4.5,4.5v49
	C509.6,137,507.5,139,505.1,139z"/>
<rect x="489.1" y="90.5" class="st2" width="20" height="4"/>
<rect x="489.1" y="121.5" class="st2" width="20" height="4"/>
<path class="st1" d="M535.1,139h-12c-2.5,0-4.5-2-4.5-4.5v-49c0-2.5,2-4.5,4.5-4.5h12c2.5,0,4.5,2,4.5,4.5v49
	C539.6,137,537.5,139,535.1,139z"/>
<rect x="519.1" y="90.5" class="st2" width="20" height="4"/>
<rect x="519.1" y="121.5" class="st2" width="20" height="4"/>
<path class="st1" d="M565.1,139h-12c-2.5,0-4.5-2-4.5-4.5v-49c0-2.5,2-4.5,4.5-4.5h12c2.5,0,4.5,2,4.5,4.5v49
	C569.6,137,567.5,139,565.1,139z"/>
<rect x="549.1" y="90.5" class="st2" width="20" height="4"/>
<rect x="549.1" y="121.5" class="st2" width="20" height="4"/>
<path class="st1" d="M426.1,220h-12c-2.5,0-4.5-2-4.5-4.5v-49c0-2.5,2-4.5,4.5-4.5h12c2.5,0,4.5,2,4.5,4.5v49
	C430.6,218,428.5,220,426.1,220z"/>
<rect x="410.1" y="171.5" class="st2" width="20" height="4"/>
<rect x="410.1" y="202.5" class="st2" width="20" height="4"/>
<path class="st1" d="M456.1,220h-12c-2.5,0-4.5-2-4.5-4.5v-49c0-2.5,2-4.5,4.5-4.5h12c2.5,0,4.5,2,4.5,4.5v49
	C460.6,218,458.5,220,456.1,220z"/>
<rect x="440.1" y="171.5" class="st2" width="20" height="4"/>
<rect x="440.1" y="202.5" class="st2" width="20" height="4"/>
<path class="st1" d="M486.1,220h-12c-2.5,0-4.5-2-4.5-4.5v-49c0-2.5,2-4.5,4.5-4.5h12c2.5,0,4.5,2,4.5,4.5v49
	C490.6,218,488.5,220,486.1,220z"/>
<rect x="470.1" y="171.5" class="st2" width="20" height="4"/>
<rect x="470.1" y="202.5" class="st2" width="20" height="4"/>
<path class="st1" d="M519.1,58h-12c-2.5,0-4.5-2-4.5-4.5v-49c0-2.5,2-4.5,4.5-4.5h12c2.5,0,4.5,2,4.5,4.5v49
	C523.6,56,521.5,58,519.1,58z"/>
<rect x="503.1" y="9.5" class="st2" width="20" height="4"/>
<rect x="503.1" y="40.5" class="st2" width="20" height="4"/>
<path class="st1" d="M549.1,58h-12c-2.5,0-4.5-2-4.5-4.5v-49c0-2.5,2-4.5,4.5-4.5h12c2.5,0,4.5,2,4.5,4.5v49
	C553.6,56,551.5,58,549.1,58z"/>
<rect x="533.1" y="9.5" class="st2" width="20" height="4"/>
<rect x="533.1" y="40.5" class="st2" width="20" height="4"/>
<path class="st1" d="M579.1,58h-12c-2.5,0-4.5-2-4.5-4.5v-49c0-2.5,2-4.5,4.5-4.5h12c2.5,0,4.5,2,4.5,4.5v49
	C583.6,56,581.5,58,579.1,58z"/>
<rect x="563.1" y="9.5" class="st2" width="20" height="4"/>
<rect x="563.1" y="40.5" class="st2" width="20" height="4"/>
<path class="st1" d="M609.1,58h-12c-2.5,0-4.5-2-4.5-4.5v-49c0-2.5,2-4.5,4.5-4.5h12c2.5,0,4.5,2,4.5,4.5v49
	C613.6,56,611.5,58,609.1,58z"/>
<rect x="593.1" y="9.5" class="st2" width="20" height="4"/>
<rect x="593.1" y="40.5" class="st2" width="20" height="4"/>
<path class="st2" d="M654,59.5H369c-0.6,0-1-0.4-1-1s0.4-1,1-1h285c0.6,0,1,0.4,1,1S654.6,59.5,654,59.5z"/>
<path class="st2" d="M654,140.5H369c-0.6,0-1-0.4-1-1s0.4-1,1-1h285c0.6,0,1,0.4,1,1S654.6,140.5,654,140.5z"/>
<path class="st2" d="M654,221.5H369c-0.6,0-1-0.4-1-1s0.4-1,1-1h285c0.6,0,1,0.4,1,1S654.6,221.5,654,221.5z"/>
<path class="st0" d="M581.6,210.4c1.2-13.3,4.6-26.3,10.1-38.5c1.5-3.4,3.2-6.7,5-10c0.2-0.4,0.1-0.8-0.3-1c-0.3-0.2-0.8-0.1-1,0.3
	c-6.6,11.8-11.3,24.7-13.8,38c-0.7,3.7-1.2,7.5-1.6,11.2C580,211.4,581.5,211.4,581.6,210.4z"/>
<circle class="st0" cx="600.3" cy="154.9" r="9.4"/>
<path class="st0" d="M582.5,210.7c0.8-8.6,3-17.1,6.6-25c1-2.2,2.1-4.4,3.3-6.5c0.1-0.2,0-0.5-0.2-0.7c-0.2-0.1-0.5,0-0.6,0.2
	c-4.3,7.7-7.3,16-8.9,24.6c-0.4,2.4-0.8,4.8-1,7.3C581.5,211.3,582.5,211.3,582.5,210.7z"/>
<circle class="st0" cx="594.7" cy="174.7" r="6.1"/>
<path class="st0" d="M581.3,210.1c-4.7-7.3-8.1-15.3-10.2-23.7c-0.6-2.3-1-4.7-1.4-7.1c0-0.3-0.3-0.4-0.6-0.4
	c-0.3,0-0.4,0.3-0.4,0.5c1.3,8.7,4.1,17.1,8.1,24.9c1.1,2.2,2.4,4.3,3.7,6.4C580.9,211.2,581.6,210.6,581.3,210.1L581.3,210.1z"/>
<circle class="st0" cx="568.7" cy="174.2" r="6.1"/>
<path class="st1" d="M562.6,215.5v-12c0-2.5,2-4.5,4.5-4.5h28c2.5,0,4.5,2,4.5,4.5v12c0,2.5-2,4.5-4.5,4.5h-28
	C564.6,220,562.6,218,562.6,215.5z"/>
<path class="st3" d="M382,363.5H1c-0.6,0-1-0.4-1-1s0.4-1,1-1h381c0.6,0,1,0.4,1,1S382.6,363.5,382,363.5z"/>
<circle class="st4" cx="199.1" cy="205.5" r="27"/>
<polygon class="st5" points="173.4,378.8 172.7,366.6 219.6,358 220.6,376.1 "/>
<path class="st6" d="M175.7,357.6l1.4,23.6l0,0l-14.9,0.9l0,0l-2.2-38.5l0,0l0,0C168.2,343.2,175.2,349.4,175.7,357.6z"/>
<polygon class="st5" points="193.8,378.7 186,388.2 145.8,362.7 157.3,348.7 "/>
<path class="st6" d="M177.7,392.7l15-18.3l0,0l11.5,9.5l0,0l-24.5,29.8l0,0l0,0C173.4,408.5,172.5,399.1,177.7,392.7z"/>
<path class="st6" d="M171.4,334.7l-5.3,25.1c-0.5,2.2,0.9,4.3,3.1,4.7c0.3,0.1,0.5,0.1,0.8,0.1l52.3,0.8c2.2,0,4-1.7,4.1-3.9
	c0-0.3,0-0.5-0.1-0.8l-4.6-25.9c-0.3-1.9-2-3.3-3.9-3.3h-42.4C173.4,331.5,171.8,332.8,171.4,334.7z"/>
<path class="st6" d="M180.1,343.5c0,0-51-32-61-15c-5,8.5-2.5,16.8,1.3,22.9c3.5,5.6,8.5,10,14.4,12.9l41.3,20.2l15-16l-10-9
	L180.1,343.5z"/>
<path class="st6" d="M206.1,338.5c0,0,66-19,53,17s-62,22-62,22l-5-15l17-12L206.1,338.5z"/>
<circle class="st5" cx="199.4" cy="211.7" r="24.6"/>
<path class="st2" d="M200.7,342.5c-10.2-0.2-20.4-1.5-30.3-4l-0.3-0.1l-13.7-63c-2.6-11.5,3.9-23,14.9-26.9
	c16.5-5.9,34.5-6.3,51.3-1h0c11.7,3.8,18.5,15.8,15.6,27.8L223,338.3l-0.2,0.1C216.4,341.5,208.5,342.5,200.7,342.5z"/>
<path class="st5" d="M182.3,347.4c1.9-5.2,7.6-7.9,12.9-6.1c0.6,0.2,1.1,0.4,1.6,0.7l27-23.4l2.4,18.4l-26,19.4
	c-3.1,4.6-9.4,5.9-14,2.8C182.3,356.7,180.7,351.8,182.3,347.4L182.3,347.4z"/>
<path class="st2" d="M208,352.5c-0.4,0-0.9-0.1-1.3-0.2c-1.4-0.4-2.5-1.5-3-2.8l-3.3-9.2c-0.6-1.7-0.1-3.7,1.3-4.9l36.8-22.1
	l-14.5-64.7l0.4-0.1c0.1,0,15-3.4,21.1,12.8c4.3,11.4,20,36.1,18.9,52.8c-0.4,6.9-5.5,12.6-12.3,13.7l-41.4,23.7
	C210,352.1,209,352.5,208,352.5z"/>
<path class="st5" d="M212.1,345.2c-1.9-5.2-7.6-7.9-12.9-6.1c-0.6,0.2-1.1,0.4-1.6,0.7l-27-23.4l-2.4,18.4l26,19.4
	c3.1,4.6,9.4,5.9,14,2.8C212.1,354.5,213.7,349.6,212.1,345.2L212.1,345.2z"/>
<path class="st2" d="M189.1,352.5c-1,0-1.9-0.3-2.7-0.9L142,329.8c-6.8-1.2-11.9-6.9-12.3-13.7c-1.1-16.7,17.7-43.4,21.9-54.8
	c6.1-16.2,20.9-12.8,21.1-12.8l0.4,0.1l-17.5,66.7l39.8,20.1c1.4,1.2,1.9,3.2,1.3,4.9l-3.3,9.2c-0.5,1.4-1.6,2.4-3,2.8
	C190,352.4,189.5,352.5,189.1,352.5z"/>
<path class="st7" d="M242.1,362.5h-89c-3.9,0-7-3.1-7-7v-49c0-3.9,3.1-7,7-7h89c3.9,0,7,3.1,7,7v49
	C249.1,359.4,245.9,362.5,242.1,362.5z"/>
<circle class="st8" cx="197.6" cy="331" r="6"/>
<path class="st4" d="M174.6,210.7c-1.5-3.7,0.9-8.1,4.5-9.9s7.8-1.4,11.6-0.3c3.2,1,6.2,2.5,9.3,3.7c3.1,1.4,6.4,2,9.8,1.7
	c3.3-0.4,6.6-2.2,8-5.3c1.4-3.2,0.4-7-1.7-9.7c-2.3-2.6-5.3-4.5-8.6-5.5c-7.3-2.6-15.7-2.6-22.5,1.1s-11.4,11.7-10,19.3"/>
<path class="st0" d="M32.7,351.8c1.2-13.3,4.6-26.3,10.1-38.5c1.5-3.4,3.2-6.7,5-10c0.2-0.4,0.1-0.8-0.3-1c-0.3-0.2-0.8-0.1-1,0.3
	c-6.6,11.8-11.3,24.7-13.8,38c-0.7,3.7-1.2,7.5-1.6,11.2C31.1,352.8,32.6,352.8,32.7,351.8L32.7,351.8z"/>
<circle class="st7" cx="51.4" cy="296.3" r="9.4"/>
<path class="st0" d="M33.6,352.1c0.8-8.6,3-17.1,6.6-25c1-2.2,2.1-4.4,3.3-6.5c0.1-0.2,0-0.5-0.2-0.7c-0.2-0.1-0.5,0-0.6,0.2
	c-4.3,7.7-7.3,16-8.9,24.6c-0.4,2.4-0.8,4.8-1,7.3C32.6,352.7,33.6,352.7,33.6,352.1z"/>
<circle class="st7" cx="45.8" cy="316.1" r="6.1"/>
<path class="st0" d="M32.4,351.5c-4.7-7.3-8.1-15.3-10.2-23.7c-0.6-2.3-1-4.7-1.4-7.1c0-0.3-0.3-0.4-0.6-0.4c-0.3,0-0.4,0.3-0.4,0.5
	c1.3,8.7,4.1,17.1,8.1,24.9c1.1,2.2,2.4,4.3,3.7,6.4C32,352.6,32.7,352,32.4,351.5L32.4,351.5z"/>
<ellipse transform="matrix(1 -8.770927e-03 8.770927e-03 1 -2.7676 0.1861)" class="st7" cx="19.8" cy="315.6" rx="6.1" ry="6.1"/>
<path class="st1" d="M13.7,356.9v-12c0-2.5,2-4.5,4.5-4.5h28c2.5,0,4.5,2,4.5,4.5v12c0,2.5-2,4.5-4.5,4.5h-28
	C15.7,361.4,13.7,359.4,13.7,356.9z"/>
<path class="st9" d="M314.4,370.9c0,6.6-5.3,9.6-11.9,9.6s-11.9-3-11.9-9.6s2.6-14.3,11.9-11.6C311.8,355.3,314.4,364.3,314.4,370.9
	z"/>
<path class="st3" d="M301.9,362.4c-1,0-1.8-0.7-1.9-1.7c-0.4-3.3-2.6-9.7-3.5-12.3l0,0c-0.2-0.5-0.1-1.1,0.2-1.6
	c0.6-0.8,1.7-0.9,2.5-0.3c0.1,0,0.1,0.1,0.2,0.1c0.3,0.3,0.5,0.8,0.5,1.3c-0.2,3.4,2.3,8.8,3.7,11.7c0.5,0.9,0.1,2.1-0.8,2.6
	c-0.2,0.1-0.4,0.2-0.7,0.2C302.1,362.4,302,362.4,301.9,362.4z"/>
<path class="st3" d="M310.7,355c4.1-3.4,0.9-10.3-4.3-9c-0.7,0.2-1.3,0.5-1.9,1c-3.2,3-3.7,10.7-3.7,10.7S306.5,358.4,310.7,355z"/>
</svg>
