<?xml version="1.0" encoding="utf-8"?>
<!-- Generator: Adobe Illustrator 24.0.1, SVG Export Plug-In . SVG Version: 6.00 Build 0)  -->
<svg version="1.1" id="b5708c2f-4f88-4c73-bc81-55ebbc869fb7"
	 xmlns="http://www.w3.org/2000/svg" xmlns:xlink="http://www.w3.org/1999/xlink" x="0px" y="0px" viewBox="0 0 704 741.6"
	 style="enable-background:new 0 0 704 741.6;" xml:space="preserve">
<style type="text/css">
	.st0{fill:#E6E6E6;}
	.st1{fill:#FFB8B8;}
	.st2{fill:#2F2E41;}
	.st3{fill:#D0CDE1;}
	.st4{fill:#8C692A;}
	.st5{fill:#3F3D56;}
	.st6{fill:#FFFFFF;}
	.st7{fill:#219AAF;}
</style>
<title>modern_design</title>
<ellipse class="st0" cx="352" cy="723.6" rx="352" ry="18"/>
<path class="st1" d="M649.6,460.6v4.4c0,0,7.8,27.9-1.7,27.9s-13.1-27-13.1-27v-5.2L649.6,460.6z"/>
<path class="st1" d="M475.3,361.3l1.7-7c0,0,9.6-21.8,17.4-17.4s-3.5,20.9-3.5,20.9l-1.7,4.4L475.3,361.3z"/>
<polygon class="st1" points="531.1,673.2 532.9,688 549.4,690.6 549.4,671.5 "/>
<polygon class="st1" points="622.6,668.9 624.3,690.6 643.5,688 640,667.1 "/>
<polygon class="st2" points="523.3,503.3 519.8,504.2 529.4,596.5 529.4,679.3 553.8,675 566,529.4 603.4,600.9 621.7,673.2 
	650.5,668 627,577.4 611.3,491.1 "/>
<path class="st2" d="M540.7,682.8c0,0-7.8-5.2-10.5-1.7S516.3,702,516.3,702s-27.9,28.8,0,27.9c0,0,18.3,0,21.8-10.5
	c0,0,0.9-5.2,7-5.2s13.1-6.1,13.1-9.6s-6.1-21.1-8.7-18.4C546.8,688.9,540.7,682.8,540.7,682.8z"/>
<path class="st2" d="M634.2,682.8c0,0,7.8-5.2,10.5-1.7s13.9,20.9,13.9,20.9s27.9,28.8,0,27.9c0,0-18.3,0-21.8-10.5
	c0,0-0.9-5.2-7-5.2s-13.1-6.1-13.1-9.6s6.1-21.1,8.7-18.4C628.1,688.9,634.2,682.8,634.2,682.8z"/>
<circle class="st1" cx="525.4" cy="333.8" r="23"/>
<polygon class="st1" points="523.7,352.1 535.9,366.9 557.7,348.6 542,336.4 "/>
<path class="st3" d="M530.2,367.4l0.7-6.4l24.5-14.1l33.2-3.2c4.3-0.4,8.1,2.8,8.6,7.1c0,0,0,0,0,0l12.3,130.7l4.4,11.3
	c0,0-76.7,43.6-94.1,11.3l13.1-68l-27-51.4L530.2,367.4z"/>
<path class="st3" d="M589.5,345.6c0.5-0.1,1.1-0.2,1.6-0.4c3.3-1.2,6.9-0.1,9,2.7l39.1,53.5l14.8,61.9h-20.9l-13.9-41.8l-22.7-29.6
	L589.5,345.6z"/>
<polygon class="st3" points="512.8,383.1 505.8,384.8 484.9,403.1 491.9,361.3 474.5,357.8 461,427.9 470.6,437.5 525,415.3 "/>
<path class="st4" d="M534.6,333.7c0,0-9.4-13.9-14.9-9.3s-20.6,13.5-23.8,6.4s9.1-20.1,18.3-23.2s25.5-7.2,30.6,6.5
	c3.1,8.7,4.1,18,3,27.1L534.6,333.7z"/>
<ellipse transform="matrix(0.9398 -0.3416 0.3416 0.9398 -81.3581 202.4378)" class="st1" cx="534" cy="332.2" rx="2.5" ry="4.5"/>
<path class="st5" d="M428,172.9h-4V63.4c0-35-28.4-63.4-63.4-63.4c0,0,0,0,0,0H128.5c-35,0-63.4,28.4-63.4,63.4c0,0,0,0,0,0v601
	c0,35,28.4,63.4,63.4,63.4c0,0,0,0,0,0h232.1c35,0,63.4-28.4,63.4-63.4c0,0,0,0,0,0V250.9h4V172.9z"/>
<path class="st6" d="M363.2,16.5h-30.3c4.7,11.5-0.8,24.6-12.3,29.3c-2.7,1.1-5.6,1.7-8.5,1.7h-133c-12.4,0-22.5-10.1-22.5-22.5
	c0-2.9,0.6-5.8,1.7-8.5H130c-26.1,0-47.3,21.2-47.3,47.3c0,0,0,0,0,0v600.1c0,26.1,21.2,47.3,47.3,47.3c0,0,0,0,0,0h233.2
	c26.1,0,47.3-21.2,47.3-47.3l0,0V63.8C410.5,37.7,389.3,16.5,363.2,16.5z"/>
<rect x="196.3" y="177.7" class="st7" width="82.7" height="7.7"/>
<rect x="196.3" y="204.3" class="st0" width="144.1" height="7.7"/>
<rect x="196.3" y="230.8" class="st0" width="143.9" height="7.7"/>
<rect x="117.8" y="177.8" class="st7" width="61.4" height="61.4"/>
<rect x="196.3" y="338.9" class="st7" width="82.7" height="7.7"/>
<rect x="196.3" y="365.5" class="st0" width="144.1" height="7.7"/>
<rect x="196.3" y="392" class="st0" width="143.9" height="7.7"/>
<rect x="117.8" y="339" class="st7" width="61.4" height="61.4"/>
<rect x="196.3" y="500.1" class="st7" width="82.7" height="7.7"/>
<rect x="196.3" y="526.7" class="st0" width="144.1" height="7.7"/>
<rect x="196.3" y="553.2" class="st0" width="143.9" height="7.7"/>
<rect x="117.8" y="500.2" class="st7" width="61.4" height="61.4"/>
</svg>
